<svg xmlns="http://www.w3.org/2000/svg" xmlns:xlink="http://www.w3.org/1999/xlink" width="48" zoomAndPan="magnify" viewBox="0 0 36 36.000001" height="48" preserveAspectRatio="xMidYMid meet" version="1.2"><defs><clipPath id="20a6712557"><path d="M 3 2 L 34.761719 2 L 34.761719 18 L 3 18 Z M 3 2 "/></clipPath><clipPath id="e98f8980c0"><path d="M 1.199219 17.050781 L 33.148438 17.050781 L 33.148438 33.144531 L 1.199219 33.144531 Z M 1.199219 17.050781 "/></clipPath><clipPath id="b7bea58033"><path d="M 9.324219 12.894531 L 26.835938 12.894531 L 26.835938 22.378906 L 9.324219 22.378906 Z M 9.324219 12.894531 "/></clipPath></defs><g id="0237ad02e1"><g clip-rule="nonzero" clip-path="url(#20a6712557)"><path style=" stroke:none;fill-rule:nonzero;fill:#00bf63;fill-opacity:1;" d="M 18.089844 3.914062 C 23.832031 3.914062 28.757812 7.472656 30.78125 12.496094 C 30.785156 12.5 30.78125 12.507812 30.777344 12.507812 L 29.105469 13.03125 C 28.757812 13.144531 28.65625 13.589844 28.929688 13.839844 L 32.761719 17.355469 C 33.03125 17.605469 33.46875 17.46875 33.546875 17.109375 L 34.679688 12.03125 C 34.757812 11.671875 34.421875 11.363281 34.070312 11.472656 L 32.589844 11.9375 C 32.585938 11.9375 32.582031 11.9375 32.582031 11.933594 C 31.875 10.121094 30.824219 8.449219 29.464844 6.992188 C 26.34375 3.648438 21.890625 1.84375 17.324219 2.0625 C 13.457031 2.25 9.851562 3.84375 7.09375 6.597656 C 5.285156 8.410156 3.976562 10.585938 3.238281 12.964844 C 3.050781 13.566406 3.503906 14.175781 4.136719 14.175781 C 4.546875 14.175781 4.910156 13.910156 5.03125 13.519531 C 6.769531 7.960938 11.964844 3.914062 18.089844 3.914062 "/></g><g clip-rule="nonzero" clip-path="url(#e98f8980c0)"><path style=" stroke:none;fill-rule:nonzero;fill:#00bf63;fill-opacity:1;" d="M 18.089844 31.273438 C 12.15625 31.273438 7.097656 27.476562 5.207031 22.1875 C 5.203125 22.183594 5.207031 22.179688 5.210938 22.175781 L 6.820312 21.828125 C 7.179688 21.75 7.320312 21.316406 7.074219 21.042969 L 3.605469 17.222656 C 3.359375 16.949219 2.910156 17.046875 2.800781 17.394531 L 1.222656 22.308594 C 1.109375 22.660156 1.417969 22.996094 1.777344 22.921875 L 3.347656 22.582031 C 3.351562 22.578125 3.355469 22.582031 3.355469 22.585938 C 4.109375 24.824219 5.375 26.871094 7.09375 28.589844 C 10.03125 31.527344 13.9375 33.144531 18.089844 33.144531 C 22.242188 33.144531 26.148438 31.527344 29.085938 28.589844 C 31.042969 26.632812 32.414062 24.242188 33.109375 21.636719 C 33.269531 21.039062 32.824219 20.453125 32.207031 20.453125 C 31.78125 20.453125 31.410156 20.738281 31.300781 21.148438 C 29.730469 26.972656 24.402344 31.273438 18.089844 31.273438 "/></g><g clip-rule="nonzero" clip-path="url(#b7bea58033)"><path style=" stroke:none;fill-rule:nonzero;fill:#00bf63;fill-opacity:1;" d="M 11.316406 13.890625 C 11.316406 13.339844 10.867188 12.894531 10.320312 12.894531 C 9.769531 12.894531 9.324219 13.339844 9.324219 13.890625 C 9.324219 14.441406 9.769531 14.886719 10.320312 14.886719 C 10.867188 14.886719 11.316406 14.441406 11.316406 13.890625 Z M 22.269531 12.894531 C 20.832031 12.894531 19.550781 13.589844 18.746094 14.660156 C 17.941406 13.589844 16.660156 12.894531 15.21875 12.894531 C 12.789062 12.894531 10.8125 14.871094 10.8125 17.300781 L 10.8125 22.128906 L 12.578125 22.128906 L 12.578125 17.300781 C 12.578125 15.84375 13.761719 14.660156 15.21875 14.660156 C 16.675781 14.660156 17.863281 15.84375 17.863281 17.300781 L 17.863281 22.128906 L 19.628906 22.128906 L 19.628906 17.300781 C 19.628906 15.84375 20.8125 14.660156 22.269531 14.660156 C 23.726562 14.660156 24.910156 15.84375 24.910156 17.300781 L 24.910156 22.128906 L 26.675781 22.128906 L 26.675781 17.300781 C 26.675781 14.871094 24.699219 12.894531 22.269531 12.894531 Z M 22.269531 12.894531 "/></g></g></svg>